<svg width="166" height="48" viewBox="0 0 166 48" fill="none" xmlns="http://www.w3.org/2000/svg">
<circle cx="22" cy="24.25" r="20.5" stroke="black" stroke-width="3"/>
<path d="M36.4955 9.75427C38.5069 11.7657 39.1308 15.1628 38.0471 19.3769C36.9731 23.5531 34.2708 28.2424 30.1315 32.3817C25.9923 36.5209 21.303 39.2233 17.1267 40.2973C12.9126 41.3809 9.51553 40.7571 7.50412 38.7456C5.49271 36.7342 4.86887 33.3371 5.95249 29.1231C7.02649 24.9468 9.72882 20.2575 13.8681 16.1182C18.0073 11.979 22.6966 9.27664 26.8729 8.20264C31.087 7.11902 34.4841 7.74286 36.4955 9.75427Z" stroke="black" stroke-width="3"/>
<path d="M7.50402 9.75426C9.51543 7.74285 12.9125 7.11901 17.1266 8.20263C21.3029 9.27662 25.9922 11.979 30.1314 16.1182C34.2707 20.2575 36.973 24.9468 38.047 29.123C39.1307 33.3371 38.5068 36.7342 36.4954 38.7456C34.484 40.757 31.0869 41.3809 26.8728 40.2973C22.6965 39.2233 18.0072 36.5209 13.868 32.3817C9.72873 28.2424 7.02639 23.5531 5.95239 19.3768C4.86877 15.1628 5.49262 11.7657 7.50402 9.75426Z" stroke="black" stroke-width="3"/>
<path d="M62.8502 34.2401C67.5602 34.2401 70.7402 31.7801 70.7402 27.8501C70.7402 19.5401 59.7002 23.0801 59.7002 18.7001C59.7002 17.4701 60.8102 16.6301 62.5802 16.6301C64.5902 16.6301 65.8502 17.7101 66.0002 19.3601H70.2902C70.1702 15.3701 67.1102 12.7601 62.5802 12.7601C58.3202 12.7601 55.3202 15.2201 55.3202 18.7001C55.3202 26.9501 66.2102 23.8001 66.2102 27.9101C66.2102 29.5001 64.8602 30.3401 62.8502 30.3401C60.6302 30.3401 59.2202 28.9901 59.0402 26.8601H54.7202C54.9002 31.3301 58.0802 34.2401 62.8502 34.2401Z" fill="black"/>
<path d="M71.7605 40.1201H75.9305V32.6501C76.7404 33.6701 78.2104 34.2401 79.9205 34.2401C84.2705 34.2401 87.2104 31.1501 87.2104 26.4401C87.2104 21.7301 84.5105 18.6401 80.2805 18.6401C78.3305 18.6401 76.8305 19.3601 75.9305 20.5301V18.8801H71.7605V40.1201ZM79.4104 30.6401C77.1604 30.6401 75.6905 28.9601 75.6905 26.4401C75.6905 23.8901 77.1604 22.2101 79.4104 22.2101C81.6005 22.2101 83.1005 23.8901 83.1005 26.4401C83.1005 28.9601 81.6005 30.6401 79.4104 30.6401Z" fill="black"/>
<path d="M88.2194 34.0001H92.3894V25.7201C92.3894 23.7701 93.6794 22.3601 95.5094 22.3601C97.2494 22.3601 98.4494 23.6801 98.4494 25.5101V34.0001H102.619V24.5801C102.619 21.1001 100.399 18.6401 97.0094 18.6401C94.9094 18.6401 93.2594 19.5101 92.3894 20.9801V12.3101H88.2194V34.0001Z" fill="black"/>
<path d="M114.285 28.8701C113.955 30.1601 112.845 30.8201 111.165 30.8201C109.065 30.8201 107.715 29.5001 107.415 27.3701H118.275C118.305 27.0401 118.335 26.5901 118.335 26.0201C118.335 22.5701 116.205 18.6401 110.865 18.6401C105.735 18.6401 103.395 22.5701 103.395 26.4101C103.395 30.2201 106.035 34.2401 111.165 34.2401C114.885 34.2401 117.765 32.1401 118.365 28.8701H114.285ZM110.865 21.7001C112.875 21.7001 114.045 23.0501 114.165 24.7301H107.475C107.835 22.6301 108.975 21.7001 110.865 21.7001Z" fill="black"/>
<path d="M129.271 22.3601V18.8801H127.12C125.29 18.8801 124.15 19.5101 123.34 21.4001V18.8801H119.14V34.0001H123.34V26.6501C123.34 24.0701 124.27 22.3601 126.34 22.3601H129.271Z" fill="black"/>
<path d="M143.671 18.8801H139.471V27.1601C139.471 29.0801 138.181 30.5201 136.351 30.5201C134.641 30.5201 133.441 29.2001 133.441 27.3701V18.8801H129.271V28.3001C129.271 31.7501 131.491 34.2401 134.881 34.2401C136.951 34.2401 138.631 33.3401 139.471 31.9001V34.0001H143.671V18.8801Z" fill="black"/>
<path d="M145.471 34.0001H149.641V12.3101H145.471V34.0001Z" fill="black"/>
<path d="M161.546 28.8701C161.216 30.1601 160.106 30.8201 158.426 30.8201C156.326 30.8201 154.976 29.5001 154.676 27.3701H165.536C165.566 27.0401 165.596 26.5901 165.596 26.0201C165.596 22.5701 163.466 18.6401 158.126 18.6401C152.996 18.6401 150.656 22.5701 150.656 26.4101C150.656 30.2201 153.296 34.2401 158.426 34.2401C162.146 34.2401 165.026 32.1401 165.626 28.8701H161.546ZM158.126 21.7001C160.136 21.7001 161.306 23.0501 161.426 24.7301H154.736C155.096 22.6301 156.236 21.7001 158.126 21.7001Z" fill="black"/>
</svg>
