<svg width="198" height="48" viewBox="0 0 198 48" fill="none" xmlns="http://www.w3.org/2000/svg">
<path opacity="0.8" d="M36.3068 11.1631C35.8745 10.7309 35.4423 10.2986 35.0101 9.86642C33.7134 8.48331 32.3303 7.10021 30.6015 6.23577C28.6132 5.19844 26.4522 5.45777 24.2911 5.45777C21.0062 5.45777 12.794 5.45777 7.95312 5.45777L11.238 9.86642C17.2026 9.86642 26.5386 9.86642 30.8608 9.86642C32.6761 9.86642 34.2321 10.2122 35.7017 11.1631C35.961 11.2495 36.2203 11.2495 36.3068 11.1631Z" fill="black"/>
<path opacity="0.9" d="M39.9372 18.2517C39.505 17.8195 39.0728 17.3873 38.6406 16.955C37.3439 15.5719 35.9608 14.1888 34.2319 13.3244C32.2437 12.2871 30.0826 12.5464 27.9215 12.5464C25.0689 12.5464 18.2398 12.5464 13.3989 12.5464L16.6838 16.955C22.562 16.955 30.6013 16.955 34.5777 16.955C36.393 16.955 37.949 17.3008 39.4186 18.2517C39.5915 18.3381 39.7643 18.3381 39.9372 18.2517Z" fill="black"/>
<path d="M44 25.167C43.5677 24.7348 43.1355 24.3025 42.7033 23.8703C41.4066 22.4872 40.0235 21.1041 38.2947 20.2397C36.3065 19.2023 34.1453 19.4617 31.9842 19.4617C29.3045 19.4617 23.4263 19.4617 18.6719 19.4617L21.9567 23.8703C27.662 23.8703 34.9234 23.8703 38.554 23.8703C40.3693 23.8703 41.9253 24.2161 43.3949 25.167C43.6542 25.2534 43.8271 25.3399 44 25.167Z" fill="black"/>
<path opacity="0.8" d="M7.60693 36.8368C8.03915 37.269 8.47137 37.7012 8.90359 38.1335C10.2003 39.5166 11.5834 40.8997 13.3122 41.7641C15.3004 42.8014 17.4615 42.5421 19.6226 42.5421H35.9606L32.6757 38.1335C26.7111 38.1335 17.3751 38.1335 13.0529 38.1335C11.2376 38.1335 9.68159 37.7877 8.21204 36.8368C7.95271 36.7504 7.77982 36.7504 7.60693 36.8368Z" fill="black"/>
<path opacity="0.9" d="M3.97656 29.7487C4.40878 30.1809 4.841 30.6131 5.27322 31.0453C6.56988 32.4284 7.95298 33.8116 9.68186 34.676C11.6701 35.7133 13.8312 35.454 15.9923 35.454H30.5149L27.23 31.0453C21.3518 31.0453 13.3125 31.0453 9.33609 31.0453C7.52076 31.0453 5.96477 30.6996 4.49522 29.7487C4.32233 29.6622 4.14945 29.6622 3.97656 29.7487Z" fill="black"/>
<path d="M0 22.7465C0.43222 23.1787 0.86444 23.6109 1.29666 24.0431C2.59332 25.4262 3.97643 26.8094 5.70531 27.6738C7.69352 28.7111 9.85461 28.4518 12.0157 28.4518H25.3281L22.0432 24.0431C16.3379 24.0431 9.07662 24.0431 5.44598 24.0431C3.63065 24.0431 2.07465 23.6974 0.605106 22.7465C0.345773 22.66 0.172888 22.66 0 22.7465Z" fill="black"/>
<path d="M53.9321 14.0081V34.0001H58.3281V25.7401H66.7001V22.3241H58.3281V17.7041H67.9881V14.0081H53.9321Z" fill="black"/>
<path d="M79.0138 25.2081H72.5458C72.5645 24.9281 72.6204 24.6107 72.7138 24.2561C72.8258 23.9014 73.0031 23.5654 73.2458 23.2481C73.5071 22.9307 73.8431 22.6694 74.2538 22.4641C74.6831 22.2401 75.2151 22.1281 75.8498 22.1281C76.8205 22.1281 77.5391 22.3894 78.0058 22.9121C78.4911 23.4347 78.8271 24.2001 79.0138 25.2081ZM72.5458 27.7281H82.9898C83.0645 26.6081 82.9711 25.5347 82.7098 24.5081C82.4485 23.4814 82.0191 22.5667 81.4218 21.7641C80.8431 20.9614 80.0965 20.3267 79.1818 19.8601C78.2671 19.3747 77.1938 19.1321 75.9618 19.1321C74.8605 19.1321 73.8525 19.3281 72.9378 19.7201C72.0418 20.1121 71.2671 20.6534 70.6138 21.3441C69.9605 22.0161 69.4565 22.8187 69.1018 23.7521C68.7471 24.6854 68.5698 25.6934 68.5698 26.7761C68.5698 27.8961 68.7378 28.9227 69.0738 29.8561C69.4285 30.7894 69.9231 31.5921 70.5578 32.2641C71.1925 32.9361 71.9671 33.4587 72.8818 33.8321C73.7965 34.1867 74.8231 34.3641 75.9618 34.3641C77.6045 34.3641 79.0045 33.9907 80.1618 33.2441C81.3191 32.4974 82.1778 31.2561 82.7378 29.5201H79.2378C79.1071 29.9681 78.7525 30.3974 78.1738 30.8081C77.5951 31.2001 76.9045 31.3961 76.1018 31.3961C74.9818 31.3961 74.1231 31.1067 73.5258 30.5281C72.9284 29.9494 72.6018 29.0161 72.5458 27.7281Z" fill="black"/>
<path d="M84.3399 23.9761C84.3959 23.0427 84.6292 22.2681 85.0399 21.6521C85.4506 21.0361 85.9732 20.5414 86.6079 20.1681C87.2426 19.7947 87.9519 19.5334 88.7359 19.3841C89.5386 19.2161 90.3412 19.1321 91.1439 19.1321C91.8719 19.1321 92.6092 19.1881 93.3559 19.3001C94.1026 19.3934 94.7839 19.5894 95.3999 19.8881C96.0159 20.1867 96.5199 20.6067 96.9119 21.1481C97.3039 21.6707 97.4999 22.3707 97.4999 23.2481V30.7801C97.4999 31.4334 97.5372 32.0587 97.6119 32.6561C97.6866 33.2534 97.8172 33.7014 98.0039 34.0001H93.9719C93.8972 33.7761 93.8319 33.5521 93.7759 33.3281C93.7386 33.0854 93.7106 32.8427 93.6919 32.6001C93.0572 33.2534 92.3106 33.7107 91.4519 33.9721C90.5932 34.2334 89.7159 34.3641 88.8199 34.3641C88.1292 34.3641 87.4852 34.2801 86.8879 34.1121C86.2906 33.9441 85.7679 33.6827 85.3199 33.3281C84.8719 32.9734 84.5172 32.5254 84.2559 31.9841C84.0132 31.4427 83.8919 30.7987 83.8919 30.0521C83.8919 29.2307 84.0319 28.5587 84.3119 28.0361C84.6106 27.4947 84.9839 27.0654 85.4319 26.7481C85.8986 26.4307 86.4212 26.1974 86.9999 26.0481C87.5972 25.8801 88.1946 25.7494 88.7919 25.6561C89.3892 25.5627 89.9772 25.4881 90.5559 25.4321C91.1346 25.3761 91.6479 25.2921 92.0959 25.1801C92.5439 25.0681 92.8986 24.9094 93.1599 24.7041C93.4212 24.4801 93.5426 24.1627 93.5239 23.7521C93.5239 23.3227 93.4492 22.9867 93.2999 22.7441C93.1692 22.4827 92.9826 22.2867 92.7399 22.1561C92.5159 22.0067 92.2452 21.9134 91.9279 21.8761C91.6292 21.8201 91.3026 21.7921 90.9479 21.7921C90.1639 21.7921 89.5479 21.9601 89.0999 22.2961C88.6519 22.6321 88.3906 23.1921 88.3159 23.9761H84.3399ZM93.5239 26.9161C93.3559 27.0654 93.1412 27.1867 92.8799 27.2801C92.6372 27.3547 92.3666 27.4201 92.0679 27.4761C91.7879 27.5321 91.4892 27.5787 91.1719 27.6161C90.8546 27.6534 90.5372 27.7001 90.2199 27.7561C89.9212 27.8121 89.6226 27.8867 89.3239 27.9801C89.0439 28.0734 88.7919 28.2041 88.5679 28.3721C88.3626 28.5214 88.1946 28.7174 88.0639 28.9601C87.9332 29.2027 87.8679 29.5107 87.8679 29.8841C87.8679 30.2387 87.9332 30.5374 88.0639 30.7801C88.1946 31.0227 88.3719 31.2187 88.5959 31.3681C88.8199 31.4987 89.0812 31.5921 89.3799 31.6481C89.6786 31.7041 89.9866 31.7321 90.3039 31.7321C91.0879 31.7321 91.6946 31.6014 92.1239 31.3401C92.5532 31.0787 92.8706 30.7707 93.0759 30.4161C93.2812 30.0427 93.4026 29.6694 93.4399 29.2961C93.4959 28.9227 93.5239 28.6241 93.5239 28.4001V26.9161Z" fill="black"/>
<path d="M104.786 19.5241V15.1841H100.81V19.5241H98.402V22.1841H100.81V30.7241C100.81 31.4521 100.931 32.0401 101.174 32.4881C101.417 32.9361 101.743 33.2814 102.154 33.5241C102.583 33.7667 103.069 33.9254 103.61 34.0001C104.17 34.0934 104.758 34.1401 105.374 34.1401C105.766 34.1401 106.167 34.1307 106.578 34.1121C106.989 34.0934 107.362 34.0561 107.698 34.0001V30.9201C107.511 30.9574 107.315 30.9854 107.11 31.0041C106.905 31.0227 106.69 31.0321 106.466 31.0321C105.794 31.0321 105.346 30.9201 105.122 30.6961C104.898 30.4721 104.786 30.0241 104.786 29.3521V22.1841H107.698V19.5241H104.786Z" fill="black"/>
<path d="M108.75 14.0081V34.0001H112.726V26.4121C112.726 24.9374 112.968 23.8827 113.454 23.2481C113.939 22.5947 114.723 22.2681 115.806 22.2681C116.758 22.2681 117.42 22.5667 117.794 23.1641C118.167 23.7427 118.354 24.6294 118.354 25.8241V34.0001H122.33V25.0961C122.33 24.2001 122.246 23.3881 122.078 22.6601C121.928 21.9134 121.658 21.2881 121.266 20.7841C120.874 20.2614 120.332 19.8601 119.642 19.5801C118.97 19.2814 118.102 19.1321 117.038 19.1321C116.291 19.1321 115.526 19.3281 114.742 19.7201C113.958 20.0934 113.314 20.7001 112.81 21.5401H112.726V14.0081H108.75Z" fill="black"/>
<path d="M134.251 25.2081H127.783C127.802 24.9281 127.858 24.6107 127.951 24.2561C128.063 23.9014 128.241 23.5654 128.483 23.2481C128.745 22.9307 129.081 22.6694 129.491 22.4641C129.921 22.2401 130.453 22.1281 131.087 22.1281C132.058 22.1281 132.777 22.3894 133.243 22.9121C133.729 23.4347 134.065 24.2001 134.251 25.2081ZM127.783 27.7281H138.227C138.302 26.6081 138.209 25.5347 137.947 24.5081C137.686 23.4814 137.257 22.5667 136.659 21.7641C136.081 20.9614 135.334 20.3267 134.419 19.8601C133.505 19.3747 132.431 19.1321 131.199 19.1321C130.098 19.1321 129.09 19.3281 128.175 19.7201C127.279 20.1121 126.505 20.6534 125.851 21.3441C125.198 22.0161 124.694 22.8187 124.339 23.7521C123.985 24.6854 123.807 25.6934 123.807 26.7761C123.807 27.8961 123.975 28.9227 124.311 29.8561C124.666 30.7894 125.161 31.5921 125.795 32.2641C126.43 32.9361 127.205 33.4587 128.119 33.8321C129.034 34.1867 130.061 34.3641 131.199 34.3641C132.842 34.3641 134.242 33.9907 135.399 33.2441C136.557 32.4974 137.415 31.2561 137.975 29.5201H134.475C134.345 29.9681 133.99 30.3974 133.411 30.8081C132.833 31.2001 132.142 31.3961 131.339 31.3961C130.219 31.3961 129.361 31.1067 128.763 30.5281C128.166 29.9494 127.839 29.0161 127.783 27.7281Z" fill="black"/>
<path d="M139.746 19.5241V34.0001H143.722V27.4761C143.722 26.8227 143.787 26.2161 143.918 25.6561C144.048 25.0961 144.263 24.6107 144.562 24.2001C144.879 23.7707 145.29 23.4347 145.794 23.1921C146.298 22.9494 146.914 22.8281 147.642 22.8281C147.884 22.8281 148.136 22.8467 148.398 22.8841C148.659 22.9027 148.883 22.9307 149.07 22.9681V19.2721C148.752 19.1787 148.463 19.1321 148.202 19.1321C147.698 19.1321 147.212 19.2067 146.746 19.3561C146.279 19.5054 145.84 19.7201 145.43 20.0001C145.019 20.2614 144.655 20.5881 144.338 20.9801C144.02 21.3534 143.768 21.7641 143.582 22.2121H143.526V19.5241H139.746Z" fill="black"/>
<path d="M154.604 30.3041V17.7041H157.74C158.823 17.7041 159.728 17.8627 160.456 18.1801C161.203 18.4787 161.8 18.9174 162.248 19.4961C162.696 20.0747 163.014 20.7747 163.2 21.5961C163.406 22.3987 163.508 23.3041 163.508 24.3121C163.508 25.4134 163.368 26.3467 163.088 27.1121C162.808 27.8774 162.435 28.5027 161.968 28.9881C161.502 29.4547 160.97 29.7907 160.372 29.9961C159.775 30.2014 159.159 30.3041 158.524 30.3041H154.604ZM150.208 14.0081V34.0001H158.832C160.363 34.0001 161.688 33.7481 162.808 33.2441C163.947 32.7214 164.89 32.0121 165.636 31.1161C166.402 30.2201 166.971 29.1561 167.344 27.9241C167.718 26.6921 167.904 25.3481 167.904 23.8921C167.904 22.2307 167.671 20.7841 167.204 19.5521C166.756 18.3201 166.122 17.2934 165.3 16.4721C164.498 15.6507 163.536 15.0347 162.416 14.6241C161.315 14.2134 160.12 14.0081 158.832 14.0081H150.208Z" fill="black"/>
<path d="M179.446 25.2081H172.978C172.997 24.9281 173.053 24.6107 173.146 24.2561C173.258 23.9014 173.436 23.5654 173.678 23.2481C173.94 22.9307 174.276 22.6694 174.686 22.4641C175.116 22.2401 175.648 22.1281 176.282 22.1281C177.253 22.1281 177.972 22.3894 178.438 22.9121C178.924 23.4347 179.26 24.2001 179.446 25.2081ZM172.978 27.7281H183.422C183.497 26.6081 183.404 25.5347 183.142 24.5081C182.881 23.4814 182.452 22.5667 181.854 21.7641C181.276 20.9614 180.529 20.3267 179.614 19.8601C178.7 19.3747 177.626 19.1321 176.394 19.1321C175.293 19.1321 174.285 19.3281 173.37 19.7201C172.474 20.1121 171.7 20.6534 171.046 21.3441C170.393 22.0161 169.889 22.8187 169.534 23.7521C169.18 24.6854 169.002 25.6934 169.002 26.7761C169.002 27.8961 169.17 28.9227 169.506 29.8561C169.861 30.7894 170.356 31.5921 170.99 32.2641C171.625 32.9361 172.4 33.4587 173.314 33.8321C174.229 34.1867 175.256 34.3641 176.394 34.3641C178.037 34.3641 179.437 33.9907 180.594 33.2441C181.752 32.4974 182.61 31.2561 183.17 29.5201H179.67C179.54 29.9681 179.185 30.3974 178.606 30.8081C178.028 31.2001 177.337 31.3961 176.534 31.3961C175.414 31.3961 174.556 31.1067 173.958 30.5281C173.361 29.9494 173.034 29.0161 172.978 27.7281Z" fill="black"/>
<path d="M192.948 34.0001L197.848 19.5241H193.9L190.848 29.4081H190.792L187.74 19.5241H183.568L188.524 34.0001H192.948Z" fill="black"/>
</svg>
