<svg width="46" height="46" viewBox="0 0 46 46" fill="none" xmlns="http://www.w3.org/2000/svg">
<path d="M41.402 23.2094L40.3278 20.1575L28.7427 31.7431C27.6108 32.8772 26.1028 33.5008 24.5007 33.5008C22.8991 33.5008 21.3911 32.8772 20.2591 31.7431L11.7595 23.2434C10.6254 22.1115 10.0014 20.6035 10.0014 19.0018C10.0014 17.3997 10.6254 15.8917 11.7595 14.7599C12.8914 13.6261 14.3993 13.0022 16.001 13.0022C17.6031 13.0022 19.1111 13.6261 20.243 14.7599L24.5007 19.0157L35.9083 7.60854L35.1401 5.4286L34.7863 3.31278C34.5644 1.95676 33.6702 0.832849 32.4002 0.306659C31.1243 -0.223187 29.7006 -0.0591333 28.5826 0.742854L23.025 4.76648L17.4051 0.732636C16.2772 -0.0632581 14.8494 -0.221406 13.5813 0.310784C12.3216 0.838755 11.4355 1.96069 11.2135 3.30874L10.1256 10.0822L3.31184 11.2141C1.95807 11.4362 0.834159 12.3302 0.306188 13.6002C-0.221876 14.8741 -0.057823 16.3019 0.744071 17.4199L4.76601 22.9774L0.732071 28.5971C-0.0619478 29.725 -0.221877 31.155 0.310219 32.4209C0.840065 33.6809 1.95985 34.5668 3.30781 34.789L10.0816 35.8788L11.2135 42.6903C11.4336 44.0423 12.3216 45.1643 13.5813 45.6924C14.8513 46.2241 16.2812 46.0662 17.4193 45.2602L22.9771 41.2366L28.5826 45.2602C29.2686 45.7502 30.0665 46.0021 30.8766 46.0021C31.3903 46.0021 31.9063 45.9022 32.4002 45.6964C33.6723 45.1684 34.5644 44.0445 34.7863 42.6943L35.8761 35.9209L42.6876 34.789C44.0396 34.5668 45.1597 33.681 45.6897 32.4208C46.2218 31.155 46.0635 29.725 45.2575 28.5832L41.402 23.2094Z" fill="#FFC107"/>
</svg>
